<?xml version="1.0" standalone="no"?>
<!DOCTYPE svg PUBLIC "-//W3C//DTD SVG 20010904//EN"
 "http://www.w3.org/TR/2001/REC-SVG-20010904/DTD/svg10.dtd">
<svg version="1.0" xmlns="http://www.w3.org/2000/svg"
 width="512.000000pt" height="512.000000pt" viewBox="0 0 512.000000 512.000000"
 preserveAspectRatio="xMidYMid meet">
<metadata>
Created by potrace 1.14, written by Peter Selinger 2001-2017
</metadata>
<g transform="translate(0.000000,512.000000) scale(0.100000,-0.100000)"
fill="#000000" stroke="none">
<path d="M2440 4102 c-320 -34 -578 -141 -823 -340 -74 -60 -104 -97 -122
-150 -12 -33 -16 -36 -56 -38 -370 -21 -718 -208 -946 -509 -89 -119 -115
-202 -88 -292 12 -38 10 -45 -14 -90 -66 -119 -103 -186 -123 -221 -134 -236
-224 -502 -255 -752 -15 -124 -9 -299 12 -365 27 -84 90 -172 162 -227 211
-159 498 -120 668 92 11 14 37 48 57 76 21 28 70 81 109 118 138 131 296 212
521 270 57 15 57 14 135 -18 122 -52 271 -72 392 -53 19 3 38 -10 89 -65 117
-124 256 -181 426 -174 103 5 177 26 262 77 53 32 126 99 159 145 12 18 22 21
52 16 54 -7 118 -7 188 1 85 9 94 12 193 51 l88 35 115 -34 c264 -78 432 -191
582 -390 33 -44 79 -98 102 -120 140 -134 362 -163 545 -70 108 55 206 185
236 313 13 53 13 279 0 339 -2 11 -8 43 -12 70 -29 202 -144 512 -257 690 -15
24 -27 44 -27 46 0 2 -24 48 -54 102 -52 94 -54 99 -42 134 17 49 13 122 -10
174 -51 116 -236 317 -379 411 -176 116 -296 163 -540 211 -11 3 -48 6 -82 7
l-61 3 -22 52 c-16 38 -39 68 -82 105 -34 29 -66 58 -72 63 -32 29 -142 99
-226 143 -149 79 -340 139 -505 158 -62 7 -250 11 -295 6z m265 -176 c199 -21
413 -99 575 -209 82 -56 170 -131 161 -136 -4 -3 -122 -404 -261 -891 -138
-487 -262 -908 -275 -937 -34 -75 -106 -147 -184 -186 -60 -29 -74 -32 -161
-31 -81 0 -103 4 -152 26 -32 15 -79 47 -106 72 -75 70 -93 110 -168 371 -7
28 -43 154 -79 280 -36 127 -72 253 -80 280 -40 137 -167 582 -170 595 -20 86
-121 416 -128 419 -26 10 201 171 326 230 74 34 191 77 240 87 10 2 26 5 35 8
32 10 77 16 152 22 41 4 76 8 78 9 4 3 138 -3 197 -9z m-1196 -546 c5 -14 40
-119 76 -235 37 -115 105 -329 152 -475 47 -146 98 -305 113 -355 16 -49 61
-191 100 -313 39 -123 69 -226 65 -230 -11 -11 -124 -3 -187 14 -96 24 -130
46 -307 197 -91 77 -191 161 -221 186 -30 25 -86 73 -125 106 -38 33 -113 96
-165 140 -52 44 -111 94 -130 112 -40 36 -54 48 -188 163 -129 109 -144 136
-114 195 44 88 195 247 308 324 117 81 275 150 384 167 19 3 38 8 42 11 5 2
38 7 75 10 38 3 69 6 70 7 1 1 11 2 22 2 13 0 24 -10 30 -26z m2231 15 c96
-11 128 -18 211 -45 165 -54 309 -143 434 -268 85 -85 175 -212 170 -239 -2
-10 -4 -23 -4 -30 -1 -14 -44 -54 -216 -204 -71 -62 -135 -118 -141 -123 -6
-6 -33 -29 -60 -51 -26 -22 -67 -56 -89 -75 -23 -19 -63 -53 -89 -75 -27 -22
-54 -45 -60 -50 -6 -6 -67 -58 -136 -115 -69 -58 -127 -107 -130 -110 -20 -20
-200 -169 -221 -182 -24 -16 -105 -42 -160 -53 -34 -7 -139 -8 -145 -2 -3 3
22 92 56 199 77 241 205 641 275 858 29 91 78 246 109 345 32 99 62 192 68
207 11 29 3 28 128 13z m-3020 -959 c91 -77 172 -147 181 -155 9 -9 29 -27 45
-41 48 -41 179 -155 184 -160 3 -3 39 -34 80 -70 41 -36 77 -67 80 -70 3 -3
33 -30 68 -59 34 -30 62 -57 62 -61 0 -3 -21 -12 -47 -18 -150 -39 -370 -171
-493 -297 -96 -98 -90 -91 -130 -150 -72 -107 -148 -155 -260 -162 -121 -9
-235 59 -290 172 -21 42 -25 66 -26 151 -1 83 11 202 30 309 20 106 69 258
118 365 64 140 211 399 222 393 6 -4 85 -70 176 -147z m3926 44 c145 -256 196
-372 244 -552 67 -253 76 -462 24 -575 -40 -88 -161 -163 -264 -163 -105 0
-187 46 -266 147 -72 94 -79 102 -147 172 -115 117 -308 235 -467 286 -30 10
-58 21 -63 24 -4 4 7 20 25 36 18 15 53 47 78 69 25 23 59 52 76 66 39 33 178
154 184 160 5 5 131 116 195 171 118 103 318 270 320 267 1 -2 29 -50 61 -108z"/>
</g>
</svg>
